# xmcd CD database file
#
# Track frame offsets:
#	150
#	27655
#	52842
#
# Disc length: 938 seconds
#
# Revision: 0
# Processed by: cddbd v1.5.1PL2 Copyright (c) Steve Scherf et al.
# Submitted via: CDex 1.51
#
DISCID=1e03a803
DTITLE=キリンジ - エイリアンズ
DYEAR=2000
DGENRE=Japanese Pop
TTITLE0=エイリアンズ
TTITLE1=イカロスの末裔(Radio Mix)
TTITLE2=銀砂子のピンボール(Special christmas Version)
EXTD=YEAR: 2000
EXTT0=
EXTT1=
EXTT2=
PLAYORDER=
